<svg id="SvgjsSvg2146" width="5000" height="3926" xmlns="http://www.w3.org/2000/svg" version="1.1" xmlns:xlink="http://www.w3.org/1999/xlink" xmlns:svgjs="http://svgjs.com/svgjs" viewBox="0 0 314.8625183105469 247.2750072479248"><defs id="SvgjsDefs2147"></defs><g id="SvgjsG2149" transform="rotate(0 157.4250030517578 60)"><svg height="120" viewBox="0 0 80.906005859375 93.41999816894531" xmlns="http://www.w3.org/2000/svg" version="1.1" xmlns:xlink="http://www.w3.org/1999/xlink" xmlns:svgjs="http://svgjs.com/svgjs" preserveAspectRatio="none" width="103.92500305175781" x="105.4625015258789" y="0"><g><svg data-color="1" xmlns="http://www.w3.org/2000/svg" xmlns:xlink="http://www.w3.org/1999/xlink" version="1.1" x="0px" y="0px" viewBox="9.54699993133545 3.2899999618530273 80.906005859375 93.41999816894531" enable-background="new 0 0 100 100" xml:space="preserve" width="80.906005859375" height="93.41999816894531" fill="#FFFFFF"><g><path d="M31.112,39.094v21.812L49.999,71.81l18.89-10.903V39.094l-18.89-10.905L31.112,39.094z M60.925,56.308l-10.926,6.307   l-10.924-6.307V43.692l10.924-6.308l10.926,6.308V56.308z"></path><path d="M49.999,3.29L9.547,26.646v46.709L49.999,96.71l40.454-23.355V26.646L49.999,3.29z M82.19,68.584L49.999,87.169   L17.811,68.584v-37.17l32.188-18.585L82.19,31.414V68.584z"></path><path d="M20.368,32.89v34.218l29.631,17.108l29.634-17.108V32.89L49.999,15.782L20.368,32.89z M71.446,62.383l-21.447,12.38   l-21.444-12.38V37.618l21.444-12.382l21.447,12.382V62.383z"></path></g></svg></g><defs id="SvgjsDefs2148"></defs></svg></g><g id="SvgjsG2151" transform="rotate(0 157.43125915527344 182.8937587738037)"><svg xmlns="http://www.w3.org/2000/svg" xmlns:xlink="http://www.w3.org/1999/xlink" width="314.8625183105469" viewBox="1.3200000524520874 16.31999969482422 314.8699951171875 53" overflow="visible" style="overflow: visible;" transform="" version="1.1" xmlns:svgjs="http://svgjs.com/svgjs" preserveAspectRatio="none" height="52.98749923706055" x="0" y="156.40000915527344" fill="#000000" stroke="none"><path stroke="none" fill="#FFFFFF" fill-opacity="0.88" d="M22.68 46.27L29.04 18.97L43.20 18.97L43.20 19.98L40.28 19.98L40.28 55.07L43.20 55.07L43.20 56.07L27.03 56.07L27.03 55.07L29.95 55.07L29.95 21.94L29.73 21.94L21.78 56.07L15.16 56.07L5.83 21.78L5.62 21.78L5.62 55.07L8.53 55.07L8.53 56.07L1.32 56.07L1.32 55.07L4.24 55.07L4.24 19.98L1.32 19.98L1.32 18.97L15.63 18.97L22.68 46.27ZM69.99 56.60L69.99 56.60Q63.15 56.60 59.73 53.08L59.73 53.08L59.73 53.08Q56.31 49.55 56.31 43.27L56.31 43.27L56.31 43.27Q56.31 36.99 60.16 33.66L60.16 33.66L60.16 33.66Q64 30.32 69.94 30.32L69.94 30.32L69.94 30.32Q81.97 30.32 81.49 42.40L81.49 42.40L66.54 42.40L66.54 44.47L66.54 44.47Q66.54 49.66 67.87 52.31L67.87 52.31L67.87 52.31Q69.19 54.96 72.48 54.96L72.48 54.96L72.48 54.96Q78.63 54.96 80.54 48.39L80.54 48.39L81.49 48.55L81.49 48.55Q80.48 52.36 77.86 54.48L77.86 54.48L77.86 54.48Q75.24 56.60 69.99 56.60L69.99 56.60ZM66.60 38.74L66.60 41.34L72.06 41.34L72.06 38.74L72.06 38.74Q72.06 34.45 71.55 32.89L71.55 32.89L71.55 32.89Q71.05 31.32 69.54 31.32L69.54 31.32L69.54 31.32Q68.03 31.32 67.31 32.99L67.31 32.99L67.31 32.99Q66.60 34.66 66.60 38.74L66.60 38.74ZM107.12 43.62L107.12 43.62L108.66 43.62L108.66 39.54L108.66 39.54Q108.66 34.50 108.10 32.78L108.10 32.78L108.10 32.78Q107.54 31.06 105.95 31.06L105.95 31.06L105.95 31.06Q105.00 31.06 104.23 31.56L104.23 31.56L104.23 31.56Q103.46 32.06 103.46 32.94L103.46 32.94L103.46 32.94Q103.46 33.81 103.78 34.72L103.78 34.72L105.10 34.72L105.10 34.72Q105.53 35.83 105.53 37.39L105.53 37.39L105.53 37.39Q105.53 38.95 104.20 40.09L104.20 40.09L104.20 40.09Q102.88 41.23 100.86 41.23L100.86 41.23L100.86 41.23Q96.31 41.23 96.31 36.83L96.31 36.83L96.31 36.83Q96.31 30.32 107.38 30.32L107.38 30.32L107.38 30.32Q113.69 30.32 116.10 32.46L116.10 32.46L116.10 32.46Q118.51 34.61 118.51 40.33L118.51 40.33L118.51 51.09L118.51 51.09Q118.51 53.85 120.05 53.85L120.05 53.85L120.05 53.85Q121.85 53.85 122.17 48.39L122.17 48.39L122.96 48.44L122.96 48.44Q122.75 53.11 121.22 54.85L121.22 54.85L121.22 54.85Q119.68 56.60 116.18 56.60L116.18 56.60L116.18 56.60Q109.82 56.60 108.87 52.68L108.87 52.68L108.87 52.68Q108.18 54.70 106.80 55.65L106.80 55.65L106.80 55.65Q105.42 56.60 102.77 56.60L102.77 56.60L102.77 56.60Q94.93 56.60 94.93 50.19L94.93 50.19L94.93 50.19Q94.93 46.43 97.92 45.02L97.92 45.02L97.92 45.02Q100.92 43.62 107.12 43.62ZM105.00 50.14L105.00 50.14Q105.00 52.89 105.29 53.69L105.29 53.69L105.29 53.69Q105.58 54.48 106.40 54.48L106.40 54.48L106.40 54.48Q107.22 54.48 107.94 53.13L107.94 53.13L107.94 53.13Q108.66 51.78 108.66 49.40L108.66 49.40L108.66 44.47L108.28 44.47L108.28 44.47Q105.00 44.47 105.00 49.29L105.00 49.29L105.00 50.14ZM134.28 17.28L134.28 16.32L147.27 16.32L147.27 55.12L150.24 55.12L150.24 56.07L134.49 56.07L134.49 55.12L137.41 55.12L137.41 17.28L134.28 17.28ZM178.94 55.49L178.94 55.49L178.94 55.49Q181.59 55.49 183.63 54.06L183.63 54.06L183.63 54.06Q185.67 52.63 185.67 49.74L185.67 49.74L185.67 49.74Q185.67 46.85 183.47 45.31L183.47 45.31L183.47 45.31Q181.27 43.78 177.22 42.64L177.22 42.64L177.22 42.64Q173.16 41.50 171.33 40.65L171.33 40.65L171.33 40.65Q169.50 39.80 167.86 38.42L167.86 38.42L167.86 38.42Q164.57 35.67 164.57 29.89L164.57 29.89L164.57 29.89Q164.57 25.18 167.94 21.78L167.94 21.78L167.94 21.78Q171.31 18.39 177.14 18.39L177.14 18.39L177.14 18.39Q179.94 18.39 182.99 19.21L182.99 19.21L182.99 19.21Q186.04 20.03 186.78 20.03L186.78 20.03L186.78 20.03Q187.52 20.03 188.11 18.97L188.11 18.97L188.69 18.97L189.06 29.68L188.21 29.68L188.21 29.68Q185.67 25.07 182.89 22.29L182.89 22.29L182.89 22.29Q180.10 19.50 176.84 19.50L176.84 19.50L176.84 19.50Q173.58 19.50 171.78 21.01L171.78 21.01L171.78 21.01Q169.98 22.52 169.98 25.04L169.98 25.04L169.98 25.04Q169.98 27.56 172.13 28.91L172.13 28.91L172.13 28.91Q174.27 30.26 177.40 31.11L177.40 31.11L177.40 31.11Q180.53 31.96 181.51 32.28L181.51 32.28L181.51 32.28Q182.49 32.59 183.95 33.15L183.95 33.15L183.95 33.15Q185.40 33.71 186.33 34.32L186.33 34.32L186.33 34.32Q187.26 34.93 188.29 35.85L188.29 35.85L188.29 35.85Q189.33 36.78 189.91 37.89L189.91 37.89L189.91 37.89Q191.34 40.44 191.34 43.94L191.34 43.94L191.34 43.94Q191.34 49.66 187.76 53.13L187.76 53.13L187.76 53.13Q184.18 56.60 178.35 56.60L178.35 56.60L178.35 56.60Q175.33 56.60 171.44 55.81L171.44 55.81L171.44 55.81Q167.54 55.01 167.12 55.01L167.12 55.01L167.12 55.01Q166.38 55.01 165.69 56.60L165.69 56.60L164.95 56.60L164.42 43.99L165.32 43.99L165.32 43.99Q167.65 48.60 171.28 52.05L171.28 52.05L171.28 52.05Q174.91 55.49 178.94 55.49ZM205.15 31.80L205.15 30.85L217.92 30.85L217.92 35.72L217.92 35.72Q218.77 33.28 220.52 31.80L220.52 31.80L220.52 31.80Q222.27 30.32 225.82 30.32L225.82 30.32L225.82 30.32Q234.03 30.32 234.03 39.17L234.03 39.17L234.03 55.12L237.00 55.12L237.00 56.07L222.00 56.07L222.00 55.12L224.18 55.12L224.18 37.89L224.18 37.89Q224.18 34.72 223.75 33.79L223.75 33.79L223.75 33.79Q223.33 32.86 222.21 32.86L222.21 32.86L222.21 32.86Q220.52 32.86 219.22 35.09L219.22 35.09L219.22 35.09Q217.92 37.31 217.92 40.49L217.92 40.49L217.92 55.12L220.20 55.12L220.20 56.07L205.15 56.07L205.15 55.12L208.06 55.12L208.06 31.80L205.15 31.80ZM261.41 43.62L261.41 43.62L262.95 43.62L262.95 39.54L262.95 39.54Q262.95 34.50 262.39 32.78L262.39 32.78L262.39 32.78Q261.83 31.06 260.24 31.06L260.24 31.06L260.24 31.06Q259.29 31.06 258.52 31.56L258.52 31.56L258.52 31.56Q257.75 32.06 257.75 32.94L257.75 32.94L257.75 32.94Q257.75 33.81 258.07 34.72L258.07 34.72L259.40 34.72L259.40 34.72Q259.82 35.83 259.82 37.39L259.82 37.39L259.82 37.39Q259.82 38.95 258.50 40.09L258.50 40.09L258.50 40.09Q257.17 41.23 255.16 41.23L255.16 41.23L255.16 41.23Q250.60 41.23 250.60 36.83L250.60 36.83L250.60 36.83Q250.60 30.32 261.68 30.32L261.68 30.32L261.68 30.32Q267.98 30.32 270.39 32.46L270.39 32.46L270.39 32.46Q272.81 34.61 272.81 40.33L272.81 40.33L272.81 51.09L272.81 51.09Q272.81 53.85 274.34 53.85L274.34 53.85L274.34 53.85Q276.14 53.85 276.46 48.39L276.46 48.39L277.26 48.44L277.26 48.44Q277.05 53.11 275.51 54.85L275.51 54.85L275.51 54.85Q273.97 56.60 270.47 56.60L270.47 56.60L270.47 56.60Q264.11 56.60 263.16 52.68L263.16 52.68L263.16 52.68Q262.47 54.70 261.09 55.65L261.09 55.65L261.09 55.65Q259.71 56.60 257.06 56.60L257.06 56.60L257.06 56.60Q249.22 56.60 249.22 50.19L249.22 50.19L249.22 50.19Q249.22 46.43 252.22 45.02L252.22 45.02L252.22 45.02Q255.21 43.62 261.41 43.62ZM259.29 50.14L259.29 50.14Q259.29 52.89 259.58 53.69L259.58 53.69L259.58 53.69Q259.87 54.48 260.70 54.48L260.70 54.48L260.70 54.48Q261.52 54.48 262.23 53.13L262.23 53.13L262.23 53.13Q262.95 51.78 262.95 49.40L262.95 49.40L262.95 44.47L262.58 44.47L262.58 44.47Q259.29 44.47 259.29 49.29L259.29 49.29L259.29 50.14ZM309.78 28.09L309.78 28.09L311.26 27.19L311.26 27.19Q311.58 25.55 309.99 25.55L309.99 25.55L309.99 25.55Q307.71 25.55 307.71 29.04L307.71 29.04L307.71 29.04Q307.71 30.42 308.08 32.22L308.08 32.22L308.08 32.22Q312.11 34.93 312.11 39.14L312.11 39.14L312.11 39.14Q312.11 43.35 309.19 45.69L309.19 45.69L309.19 45.69Q306.28 48.02 301.30 48.02L301.30 48.02L301.30 48.02Q299.23 48.02 297.00 47.59L297.00 47.59L297.00 47.59Q294.67 49.08 294.67 49.82L294.67 49.82L294.67 49.82Q294.67 50.56 298.06 50.56L298.06 50.56L303.47 50.56L303.47 50.56Q315.50 50.56 315.50 59.20L315.50 59.20L315.50 59.20Q315.50 63.86 311.87 66.59L311.87 66.59L311.87 66.59Q308.24 69.32 300.55 69.32L300.55 69.32L300.55 69.32Q287.46 69.32 287.46 63.65L287.46 63.65L287.46 63.65Q287.46 60.58 291.54 59.41L291.54 59.41L294.72 60.84L294.72 60.84Q294.30 62.38 294.30 63.76L294.30 63.76L294.30 63.76Q294.30 68.32 301.08 68.32L301.08 68.32L301.08 68.32Q305.22 68.32 307.44 66.78L307.44 66.78L307.44 66.78Q309.67 65.24 309.67 62.96L309.67 62.96L309.67 62.96Q309.67 60.68 308.32 59.92L308.32 59.92L308.32 59.92Q306.97 59.15 302.94 59.15L302.94 59.15L297.80 59.15L297.80 59.15Q293.50 59.15 291.65 57.72L291.65 57.72L291.65 57.72Q289.80 56.29 289.80 54.19L289.80 54.19L289.80 54.19Q289.80 52.10 291.12 50.69L291.12 50.69L291.12 50.69Q292.44 49.29 295.84 47.22L295.84 47.22L295.84 47.22Q289.69 45.47 289.69 39.17L289.69 39.17L289.69 39.17Q289.69 35.19 292.55 32.75L292.55 32.75L292.55 32.75Q295.41 30.32 301.14 30.32L301.14 30.32L301.14 30.32Q304.58 30.32 307.02 31.64L307.02 31.64L307.02 31.64Q306.70 30.21 306.70 29.04L306.70 29.04L306.70 29.04Q306.70 26.08 308.29 24.75L308.29 24.75L308.29 24.75Q309.88 23.43 311.84 23.43L311.84 23.43L311.84 23.43Q313.80 23.43 315.00 24.46L315.00 24.46L315.00 24.46Q316.19 25.49 316.19 27.29L316.19 27.29L316.19 27.29Q316.19 29.10 315.24 29.97L315.24 29.97L315.24 29.97Q314.28 30.85 312.93 30.85L312.93 30.85L312.93 30.85Q311.58 30.85 310.70 30.13L310.70 30.13L310.70 30.13Q309.83 29.41 309.78 28.09ZM298.54 38.00L298.54 38.00L298.54 40.86L298.54 40.86Q298.54 44.41 299.15 45.69L299.15 45.69L299.15 45.69Q299.76 46.96 301.00 46.96L301.00 46.96L301.00 46.96Q302.25 46.96 302.81 45.71L302.81 45.71L302.81 45.71Q303.36 44.47 303.36 40.60L303.36 40.60L303.36 38.00L303.36 38.00Q303.36 33.87 302.83 32.57L302.83 32.57L302.83 32.57Q302.30 31.27 301.06 31.27L301.06 31.27L301.06 31.27Q299.81 31.27 299.18 32.62L299.18 32.62L299.18 32.62Q298.54 33.97 298.54 38.00Z" transform="rotate(0 158.75499761104584 42.81999969482422)"></path><defs id="SvgjsDefs2150"></defs></svg></g><g id="SvgjsG2153" transform="rotate(0 157.42499995231628 235.33125591278076)"><svg xmlns="http://www.w3.org/2000/svg" xmlns:xlink="http://www.w3.org/1999/xlink" width="309.75" viewBox="1.2799999713897705 6.130000114440918 309.75 19.095287322998047" overflow="visible" style="overflow: visible;" transform="" version="1.1" xmlns:svgjs="http://svgjs.com/svgjs" preserveAspectRatio="none" height="19.087499618530273" x="2.549999952316284" y="225.78750610351562" fill="#000000" stroke="none"><path stroke="none" fill="#FFFFFF" d="M4.62 6.13L4.62 6.13Q6.11 6.13 7.02 7.13L7.02 7.13L7.02 7.13Q7.94 8.13 7.94 9.72L7.94 9.72L7.94 17.58L7.94 17.58Q7.94 19.00 7.21 19.96L7.21 19.96L7.21 19.96Q6.49 20.92 5.25 21.11L5.25 21.11L5.25 21.11Q5.17 21.13 5.17 21.21L5.17 21.21L5.17 23.31L5.17 23.31Q5.17 23.52 4.96 23.52L4.96 23.52L4.24 23.52L4.24 23.52Q4.03 23.52 4.03 23.31L4.03 23.31L4.03 21.21L4.03 21.21Q4.03 21.13 3.95 21.11L3.95 21.11L3.95 21.11Q2.73 20.87 2.01 19.94L2.01 19.94L2.01 19.94Q1.28 19.00 1.28 17.58L1.28 17.58L1.28 9.72L1.28 9.72Q1.28 8.13 2.21 7.13L2.21 7.13L2.21 7.13Q3.13 6.13 4.62 6.13L4.62 6.13ZM6.83 17.68L6.83 9.62L6.83 9.62Q6.83 8.50 6.21 7.81L6.21 7.81L6.21 7.81Q5.59 7.12 4.62 7.12L4.62 7.12L4.62 7.12Q3.63 7.12 3.01 7.81L3.01 7.81L3.01 7.81Q2.39 8.50 2.39 9.62L2.39 9.62L2.39 17.68L2.39 17.68Q2.39 18.80 3.01 19.49L3.01 19.49L3.01 19.49Q3.63 20.18 4.62 20.18L4.62 20.18L4.62 20.18Q5.59 20.18 6.21 19.49L6.21 19.49L6.21 19.49Q6.83 18.80 6.83 17.68L6.83 17.68ZM17.48 10.63L17.48 10.63Q17.48 10.42 17.69 10.42L17.69 10.42L18.38 10.42L18.38 10.42Q18.59 10.42 18.59 10.63L18.59 10.63L18.59 20.79L18.59 20.79Q18.59 21 18.38 21L18.38 21L17.69 21L17.69 21Q17.48 21 17.48 20.79L17.48 20.79L17.48 20.03L17.48 20.03Q17.48 19.97 17.45 19.96L17.45 19.96L17.45 19.96Q17.41 19.95 17.37 19.99L17.37 19.99L17.37 19.99Q16.70 21.15 15.23 21.15L15.23 21.15L15.23 21.15Q13.97 21.15 13.24 20.38L13.24 20.38L13.24 20.38Q12.50 19.61 12.50 18.08L12.50 18.08L12.50 10.63L12.50 10.63Q12.50 10.42 12.71 10.42L12.71 10.42L13.40 10.42L13.40 10.42Q13.61 10.42 13.61 10.63L13.61 10.63L13.61 17.83L13.61 17.83Q13.61 18.98 14.11 19.57L14.11 19.57L14.11 19.57Q14.60 20.16 15.50 20.16L15.50 20.16L15.50 20.16Q16.43 20.16 16.95 19.49L16.95 19.49L16.95 19.49Q17.48 18.82 17.48 17.64L17.48 17.64L17.48 10.63ZM24.05 8.29L24.05 8.29Q23.70 8.29 23.45 8.03L23.45 8.03L23.45 8.03Q23.19 7.77 23.19 7.37L23.19 7.37L23.19 7.37Q23.19 6.97 23.45 6.72L23.45 6.72L23.45 6.72Q23.70 6.47 24.05 6.47L24.05 6.47L24.05 6.47Q24.43 6.47 24.66 6.72L24.66 6.72L24.66 6.72Q24.89 6.97 24.89 7.37L24.89 7.37L24.89 7.37Q24.89 7.79 24.66 8.04L24.66 8.04L24.66 8.04Q24.43 8.29 24.05 8.29L24.05 8.29ZM23.72 21L23.72 21Q23.51 21 23.51 20.79L23.51 20.79L23.51 10.63L23.51 10.63Q23.51 10.42 23.72 10.42L23.72 10.42L24.41 10.42L24.41 10.42Q24.62 10.42 24.62 10.63L24.62 10.63L24.62 20.79L24.62 20.79Q24.62 21 24.41 21L24.41 21L23.72 21ZM32.35 21.17L32.35 21.17Q30.95 21.17 30.10 20.30L30.10 20.30L30.10 20.30Q29.25 19.43 29.25 18.02L29.25 18.02L29.25 13.40L29.25 13.40Q29.25 12.01 30.11 11.13L30.11 11.13L30.11 11.13Q30.97 10.25 32.35 10.25L32.35 10.25L32.35 10.25Q33.28 10.25 33.99 10.64L33.99 10.64L33.99 10.64Q34.71 11.02 35.10 11.67L35.10 11.67L35.10 11.67Q35.48 12.31 35.48 13.06L35.48 13.06L35.48 13.19L35.48 13.19Q35.48 13.40 35.27 13.40L35.27 13.40L34.58 13.44L34.58 13.44Q34.37 13.44 34.37 13.27L34.37 13.27L34.37 13.10L34.37 13.10Q34.37 12.35 33.80 11.79L33.80 11.79L33.80 11.79Q33.24 11.23 32.35 11.23L32.35 11.23L32.35 11.23Q31.47 11.23 30.92 11.85L30.92 11.85L30.92 11.85Q30.36 12.47 30.36 13.46L30.36 13.46L30.36 17.98L30.36 17.98Q30.36 18.94 30.92 19.56L30.92 19.56L30.92 19.56Q31.47 20.18 32.35 20.18L32.35 20.18L32.35 20.18Q33.24 20.18 33.80 19.62L33.80 19.62L33.80 19.62Q34.37 19.07 34.37 18.31L34.37 18.31L34.37 18.21L34.37 18.21Q34.37 18.00 34.58 18.00L34.58 18.00L35.27 18.00L35.27 18.00Q35.36 18.00 35.42 18.05L35.42 18.05L35.42 18.05Q35.48 18.10 35.48 18.19L35.48 18.19L35.48 18.38L35.48 18.38Q35.48 19.13 35.10 19.77L35.10 19.77L35.10 19.77Q34.71 20.41 33.99 20.79L33.99 20.79L33.99 20.79Q33.28 21.17 32.35 21.17L32.35 21.17ZM39.98 21L39.98 21Q39.77 21 39.77 20.79L39.77 20.79L39.77 6.51L39.77 6.51Q39.77 6.30 39.98 6.30L39.98 6.30L40.68 6.30L40.68 6.30Q40.89 6.30 40.89 6.51L40.89 6.51L40.89 15.33L40.89 15.33Q40.89 15.37 40.93 15.38L40.93 15.38L40.93 15.38Q40.97 15.39 40.99 15.35L40.99 15.35L44.46 10.54L44.46 10.54Q44.54 10.42 44.71 10.42L44.71 10.42L45.44 10.42L45.44 10.42Q45.57 10.42 45.61 10.49L45.61 10.49L45.61 10.49Q45.65 10.56 45.57 10.67L45.57 10.67L43.53 13.52L43.53 13.52Q43.49 13.57 43.51 13.63L43.51 13.63L45.97 20.77L45.99 20.85L45.99 20.85Q45.99 21 45.80 21L45.80 21L45.06 21L45.06 21Q44.88 21 44.81 20.83L44.81 20.83L42.82 14.59L42.82 14.59Q42.80 14.47 42.69 14.57L42.69 14.57L40.93 17.01L40.93 17.01Q40.89 17.05 40.89 17.11L40.89 17.11L40.89 20.79L40.89 20.79Q40.89 21 40.68 21L40.68 21L39.98 21ZM59.10 10.25L59.10 10.25Q60.53 10.25 61.34 11.20L61.34 11.20L61.34 11.20Q62.15 12.16 62.15 13.75L62.15 13.75L62.15 20.79L62.15 20.79Q62.15 21 61.94 21L61.94 21L61.25 21L61.25 21Q61.04 21 61.04 20.79L61.04 20.79L61.04 20.03L61.04 20.03Q61.04 19.97 61.00 19.96L61.00 19.96L61.00 19.96Q60.97 19.95 60.93 19.99L60.93 19.99L60.93 19.99Q60.15 21.17 58.49 21.17L58.49 21.17L58.49 21.17Q57.38 21.17 56.57 20.52L56.57 20.52L56.57 20.52Q55.76 19.87 55.76 18.23L55.76 18.23L55.76 18.23Q55.76 16.48 56.73 15.67L56.73 15.67L56.73 15.67Q57.70 14.85 59.31 14.85L59.31 14.85L60.95 14.85L60.95 14.85Q61.04 14.85 61.04 14.76L61.04 14.76L61.04 13.80L61.04 13.80Q61.04 12.62 60.52 11.93L60.52 11.93L60.52 11.93Q60.01 11.23 59.08 11.23L59.08 11.23L59.08 11.23Q58.35 11.23 57.81 11.70L57.81 11.70L57.81 11.70Q57.28 12.16 57.19 12.89L57.19 12.89L57.19 12.89Q57.19 13.10 56.98 13.10L56.98 13.10L56.23 13.06L56.23 13.06Q56.12 13.06 56.07 13.00L56.07 13.00L56.07 13.00Q56.02 12.94 56.04 12.85L56.04 12.85L56.04 12.85Q56.16 11.68 57.02 10.96L57.02 10.96L57.02 10.96Q57.89 10.25 59.10 10.25L59.10 10.25ZM58.73 20.18L58.73 20.18Q59.67 20.18 60.35 19.57L60.35 19.57L60.35 19.57Q61.04 18.96 61.04 17.85L61.04 17.85L61.04 15.86L61.04 15.86Q61.04 15.77 60.95 15.77L60.95 15.77L59.31 15.77L59.31 15.77Q58.22 15.77 57.56 16.37L57.56 16.37L57.56 16.37Q56.90 16.97 56.90 18.14L56.90 18.14L56.90 18.14Q56.90 19.17 57.40 19.68L57.40 19.68L57.40 19.68Q57.91 20.18 58.73 20.18L58.73 20.18ZM70.15 10.27L70.15 10.27Q71.44 10.27 72.13 11.13L72.13 11.13L72.13 11.13Q72.82 11.99 72.82 13.54L72.82 13.54L72.82 20.79L72.82 20.79Q72.82 21 72.61 21L72.61 21L71.92 21L71.92 21Q71.71 21 71.71 20.79L71.71 20.79L71.71 13.65L71.71 13.65Q71.71 12.52 71.21 11.89L71.21 11.89L71.21 11.89Q70.72 11.26 69.82 11.26L69.82 11.26L69.82 11.26Q68.89 11.26 68.36 11.93L68.36 11.93L68.36 11.93Q67.82 12.60 67.82 13.78L67.82 13.78L67.82 20.79L67.82 20.79Q67.82 21 67.61 21L67.61 21L66.92 21L66.92 21Q66.71 21 66.71 20.79L66.71 20.79L66.71 10.63L66.71 10.63Q66.71 10.42 66.92 10.42L66.92 10.42L67.61 10.42L67.61 10.42Q67.82 10.42 67.82 10.63L67.82 10.63L67.82 11.45L67.82 11.45Q67.82 11.51 67.86 11.51L67.86 11.51L67.86 11.51Q67.91 11.51 67.93 11.45L67.93 11.45L67.93 11.45Q68.68 10.27 70.15 10.27L70.15 10.27ZM82.32 6.51L82.32 6.51Q82.32 6.30 82.53 6.30L82.53 6.30L83.22 6.30L83.22 6.30Q83.43 6.30 83.43 6.51L83.43 6.51L83.43 20.79L83.43 20.79Q83.43 21 83.22 21L83.22 21L82.53 21L82.53 21Q82.32 21 82.32 20.79L82.32 20.79L82.32 20.10L82.32 20.10Q82.32 20.03 82.28 20.02L82.28 20.02L82.28 20.02Q82.23 20.01 82.21 20.08L82.21 20.08L82.21 20.08Q81.88 20.60 81.32 20.88L81.32 20.88L81.32 20.88Q80.76 21.17 80.09 21.17L80.09 21.17L80.09 21.17Q78.83 21.17 78.07 20.30L78.07 20.30L78.07 20.30Q77.30 19.43 77.26 18.04L77.26 18.04L77.24 15.67L77.26 13.36L77.26 13.36Q77.30 11.99 78.07 11.12L78.07 11.12L78.07 11.12Q78.83 10.25 80.09 10.25L80.09 10.25L80.09 10.25Q80.76 10.25 81.32 10.53L81.32 10.53L81.32 10.53Q81.88 10.81 82.21 11.34L82.21 11.34L82.21 11.34Q82.23 11.40 82.28 11.39L82.28 11.39L82.28 11.39Q82.32 11.38 82.32 11.32L82.32 11.32L82.32 6.51ZM80.37 20.18L80.37 20.18Q81.23 20.18 81.77 19.55L81.77 19.55L81.77 19.55Q82.32 18.92 82.32 17.91L82.32 17.91L82.32 13.50L82.32 13.50Q82.32 12.49 81.77 11.87L81.77 11.87L81.77 11.87Q81.23 11.23 80.37 11.23L80.37 11.23L80.37 11.23Q79.48 11.23 78.92 11.87L78.92 11.87L78.92 11.87Q78.35 12.49 78.35 13.50L78.35 13.50L78.35 17.91L78.35 17.91Q78.35 18.92 78.91 19.55L78.91 19.55L78.91 19.55Q79.46 20.18 80.37 20.18L80.37 20.18ZM100.64 21L100.64 21Q100.45 21 100.41 20.81L100.41 20.81L99.84 18.06L99.84 18.06Q99.84 18.02 99.81 18.00L99.81 18.00L99.81 18.00Q99.78 17.98 99.74 17.98L99.74 17.98L95.64 17.98L95.64 17.98Q95.60 17.98 95.57 18.00L95.57 18.00L95.57 18.00Q95.54 18.02 95.54 18.06L95.54 18.06L94.95 20.81L94.95 20.81Q94.93 21 94.72 21L94.72 21L94.03 21L94.03 21Q93.92 21 93.87 20.94L93.87 20.94L93.87 20.94Q93.82 20.87 93.84 20.77L93.84 20.77L97.03 6.49L97.03 6.49Q97.07 6.30 97.26 6.30L97.26 6.30L98.10 6.30L98.10 6.30Q98.31 6.30 98.33 6.49L98.33 6.49L101.54 20.77L101.54 20.81L101.54 20.81Q101.54 21 101.35 21L101.35 21L100.64 21ZM95.77 16.97L95.77 16.97Q95.75 16.99 95.77 17.02L95.77 17.02L95.77 17.02Q95.79 17.05 95.83 17.05L95.83 17.05L99.53 17.05L99.53 17.05Q99.59 17.05 99.59 16.97L99.59 16.97L97.74 8.21L97.74 8.21Q97.72 8.15 97.70 8.15L97.70 8.15L97.70 8.15Q97.68 8.15 97.66 8.21L97.66 8.21L95.77 16.97ZM108.84 7.10L108.84 7.10Q107.93 7.10 107.60 7.70L107.60 7.70L107.60 7.70Q107.26 8.29 107.26 9.58L107.26 9.58L107.26 10.33L107.26 10.33Q107.26 10.42 107.34 10.42L107.34 10.42L109.07 10.42L109.07 10.42Q109.28 10.42 109.28 10.63L109.28 10.63L109.28 11.09L109.28 11.09Q109.28 11.30 109.07 11.30L109.07 11.30L107.34 11.30L107.34 11.30Q107.26 11.30 107.26 11.38L107.26 11.38L107.26 20.79L107.26 20.79Q107.26 21 107.05 21L107.05 21L106.36 21L106.36 21Q106.15 21 106.15 20.79L106.15 20.79L106.15 11.38L106.15 11.38Q106.15 11.30 106.06 11.30L106.06 11.30L105.18 11.30L105.18 11.30Q104.97 11.30 104.97 11.09L104.97 11.09L104.97 10.63L104.97 10.63Q104.97 10.42 105.18 10.42L105.18 10.42L106.06 10.42L106.06 10.42Q106.15 10.42 106.15 10.33L106.15 10.33L106.15 9.55L106.15 9.55Q106.15 7.79 106.76 6.96L106.76 6.96L106.76 6.96Q107.37 6.13 108.81 6.13L108.81 6.13L109.13 6.13L109.13 6.13Q109.34 6.13 109.34 6.34L109.34 6.34L109.32 6.89L109.32 6.89Q109.32 7.10 109.11 7.10L109.11 7.10L108.84 7.10ZM116.53 7.10L116.53 7.10Q115.62 7.10 115.29 7.70L115.29 7.70L115.29 7.70Q114.95 8.29 114.95 9.58L114.95 9.58L114.95 10.33L114.95 10.33Q114.95 10.42 115.04 10.42L115.04 10.42L116.76 10.42L116.76 10.42Q116.97 10.42 116.97 10.63L116.97 10.63L116.97 11.09L116.97 11.09Q116.97 11.30 116.76 11.30L116.76 11.30L115.04 11.30L115.04 11.30Q114.95 11.30 114.95 11.38L114.95 11.38L114.95 20.79L114.95 20.79Q114.95 21 114.74 21L114.74 21L114.05 21L114.05 21Q113.84 21 113.84 20.79L113.84 20.79L113.84 11.38L113.84 11.38Q113.84 11.30 113.75 11.30L113.75 11.30L112.87 11.30L112.87 11.30Q112.66 11.30 112.66 11.09L112.66 11.09L112.66 10.63L112.66 10.63Q112.66 10.42 112.87 10.42L112.87 10.42L113.75 10.42L113.75 10.42Q113.84 10.42 113.84 10.33L113.84 10.33L113.84 9.55L113.84 9.55Q113.84 7.79 114.45 6.96L114.45 6.96L114.45 6.96Q115.06 6.13 116.51 6.13L116.51 6.13L116.82 6.13L116.82 6.13Q117.03 6.13 117.03 6.34L117.03 6.34L117.01 6.89L117.01 6.89Q117.01 7.10 116.80 7.10L116.80 7.10L116.53 7.10ZM123.99 21.17L123.99 21.17Q122.60 21.17 121.74 20.30L121.74 20.30L121.74 20.30Q120.88 19.43 120.88 18.04L120.88 18.04L120.88 13.40L120.88 13.40Q120.88 12.01 121.74 11.13L121.74 11.13L121.74 11.13Q122.60 10.25 123.99 10.25L123.99 10.25L123.99 10.25Q125.41 10.25 126.28 11.12L126.28 11.12L126.28 11.12Q127.14 11.99 127.14 13.40L127.14 13.40L127.14 18.04L127.14 18.04Q127.14 19.43 126.28 20.30L126.28 20.30L126.28 20.30Q125.41 21.17 123.99 21.17L123.99 21.17ZM123.99 20.18L123.99 20.18Q124.89 20.18 125.46 19.56L125.46 19.56L125.46 19.56Q126.02 18.94 126.02 17.98L126.02 17.98L126.02 13.46L126.02 13.46Q126.02 12.47 125.46 11.85L125.46 11.85L125.46 11.85Q124.89 11.23 123.99 11.23L123.99 11.23L123.99 11.23Q123.10 11.23 122.55 11.85L122.55 11.85L122.55 11.85Q121.99 12.47 121.99 13.46L121.99 13.46L121.99 17.98L121.99 17.98Q121.99 18.94 122.55 19.56L122.55 19.56L122.55 19.56Q123.10 20.18 123.99 20.18L123.99 20.18ZM134.93 10.33L134.93 10.33Q135.46 10.33 135.84 10.54L135.84 10.54L135.84 10.54Q135.98 10.63 135.94 10.81L135.94 10.81L135.77 11.53L135.77 11.53Q135.71 11.72 135.50 11.63L135.50 11.63L135.50 11.63Q135.16 11.51 134.68 11.53L134.68 11.53L134.68 11.53Q133.84 11.55 133.31 12.37L133.31 12.37L133.31 12.37Q132.79 13.19 132.79 14.38L132.79 14.38L132.79 20.79L132.79 20.79Q132.79 21 132.58 21L132.58 21L131.89 21L131.89 21Q131.68 21 131.68 20.79L131.68 20.79L131.68 10.63L131.68 10.63Q131.68 10.42 131.89 10.42L131.89 10.42L132.58 10.42L132.58 10.42Q132.79 10.42 132.79 10.63L132.79 10.63L132.79 11.93L132.79 11.93Q132.79 11.99 132.83 11.99L132.83 11.99L132.83 11.99Q132.87 11.99 132.90 11.93L132.90 11.93L132.90 11.93Q133.19 11.17 133.70 10.75L133.70 10.75L133.70 10.75Q134.22 10.33 134.93 10.33L134.93 10.33ZM144.47 6.51L144.47 6.51Q144.47 6.30 144.68 6.30L144.68 6.30L145.37 6.30L145.37 6.30Q145.58 6.30 145.58 6.51L145.58 6.51L145.58 20.79L145.58 20.79Q145.58 21 145.37 21L145.37 21L144.68 21L144.68 21Q144.47 21 144.47 20.79L144.47 20.79L144.47 20.10L144.47 20.10Q144.47 20.03 144.43 20.02L144.43 20.02L144.43 20.02Q144.39 20.01 144.37 20.08L144.37 20.08L144.37 20.08Q144.03 20.60 143.47 20.88L143.47 20.88L143.47 20.88Q142.92 21.17 142.25 21.17L142.25 21.17L142.25 21.17Q140.99 21.17 140.22 20.30L140.22 20.30L140.22 20.30Q139.45 19.43 139.41 18.04L139.41 18.04L139.39 15.67L139.41 13.36L139.41 13.36Q139.45 11.99 140.22 11.12L140.22 11.12L140.22 11.12Q140.99 10.25 142.25 10.25L142.25 10.25L142.25 10.25Q142.92 10.25 143.47 10.53L143.47 10.53L143.47 10.53Q144.03 10.81 144.37 11.34L144.37 11.34L144.37 11.34Q144.39 11.40 144.43 11.39L144.43 11.39L144.43 11.39Q144.47 11.38 144.47 11.32L144.47 11.32L144.47 6.51ZM142.52 20.18L142.52 20.18Q143.38 20.18 143.93 19.55L143.93 19.55L143.93 19.55Q144.47 18.92 144.47 17.91L144.47 17.91L144.47 13.50L144.47 13.50Q144.47 12.49 143.93 11.87L143.93 11.87L143.93 11.87Q143.38 11.23 142.52 11.23L142.52 11.23L142.52 11.23Q141.64 11.23 141.07 11.87L141.07 11.87L141.07 11.87Q140.50 12.49 140.50 13.50L140.50 13.50L140.50 17.91L140.50 17.91Q140.50 18.92 141.06 19.55L141.06 19.55L141.06 19.55Q141.62 20.18 142.52 20.18L142.52 20.18ZM153.25 10.25L153.25 10.25Q154.68 10.25 155.49 11.20L155.49 11.20L155.49 11.20Q156.30 12.16 156.30 13.75L156.30 13.75L156.30 20.79L156.30 20.79Q156.30 21 156.09 21L156.09 21L155.40 21L155.40 21Q155.19 21 155.19 20.79L155.19 20.79L155.19 20.03L155.19 20.03Q155.19 19.97 155.15 19.96L155.15 19.96L155.15 19.96Q155.12 19.95 155.08 19.99L155.08 19.99L155.08 19.99Q154.30 21.17 152.65 21.17L152.65 21.17L152.65 21.17Q151.53 21.17 150.72 20.52L150.72 20.52L150.72 20.52Q149.92 19.87 149.92 18.23L149.92 18.23L149.92 18.23Q149.92 16.48 150.88 15.67L150.88 15.67L150.88 15.67Q151.85 14.85 153.46 14.85L153.46 14.85L155.10 14.85L155.10 14.85Q155.19 14.85 155.19 14.76L155.19 14.76L155.19 13.80L155.19 13.80Q155.19 12.62 154.67 11.93L154.67 11.93L154.67 11.93Q154.16 11.23 153.23 11.23L153.23 11.23L153.23 11.23Q152.50 11.23 151.96 11.70L151.96 11.70L151.96 11.70Q151.43 12.16 151.34 12.89L151.34 12.89L151.34 12.89Q151.34 13.10 151.13 13.10L151.13 13.10L150.38 13.06L150.38 13.06Q150.27 13.06 150.22 13.00L150.22 13.00L150.22 13.00Q150.17 12.94 150.19 12.85L150.19 12.85L150.19 12.85Q150.31 11.68 151.18 10.96L151.18 10.96L151.18 10.96Q152.04 10.25 153.25 10.25L153.25 10.25ZM152.88 20.18L152.88 20.18Q153.82 20.18 154.50 19.57L154.50 19.57L154.50 19.57Q155.19 18.96 155.19 17.85L155.19 17.85L155.19 15.86L155.19 15.86Q155.19 15.77 155.10 15.77L155.10 15.77L153.46 15.77L153.46 15.77Q152.37 15.77 151.71 16.37L151.71 16.37L151.71 16.37Q151.05 16.97 151.05 18.14L151.05 18.14L151.05 18.14Q151.05 19.17 151.55 19.68L151.55 19.68L151.55 19.68Q152.06 20.18 152.88 20.18L152.88 20.18ZM167.03 13.36L167.06 15.67L167.03 18.04L167.03 18.04Q166.99 19.43 166.23 20.30L166.23 20.30L166.23 20.30Q165.46 21.17 164.20 21.17L164.20 21.17L164.20 21.17Q163.53 21.17 162.97 20.88L162.97 20.88L162.97 20.88Q162.42 20.60 162.08 20.08L162.08 20.08L162.08 20.08Q162.06 20.01 162.02 20.02L162.02 20.02L162.02 20.02Q161.97 20.03 161.97 20.10L161.97 20.10L161.97 20.79L161.97 20.79Q161.97 21 161.76 21L161.76 21L161.07 21L161.07 21Q160.86 21 160.86 20.79L160.86 20.79L160.86 6.51L160.86 6.51Q160.86 6.30 161.07 6.30L161.07 6.30L161.76 6.30L161.76 6.30Q161.97 6.30 161.97 6.51L161.97 6.51L161.97 11.32L161.97 11.32Q161.97 11.38 162.02 11.39L162.02 11.39L162.02 11.39Q162.06 11.40 162.08 11.34L162.08 11.34L162.08 11.34Q162.42 10.81 162.97 10.53L162.97 10.53L162.97 10.53Q163.53 10.25 164.20 10.25L164.20 10.25L164.20 10.25Q165.46 10.25 166.23 11.12L166.23 11.12L166.23 11.12Q166.99 11.99 167.03 13.36L167.03 13.36ZM165.94 13.50L165.94 13.50Q165.94 12.49 165.38 11.87L165.38 11.87L165.38 11.87Q164.81 11.23 163.93 11.23L163.93 11.23L163.93 11.23Q163.07 11.23 162.52 11.87L162.52 11.87L162.52 11.87Q161.97 12.49 161.97 13.50L161.97 13.50L161.97 17.91L161.97 17.91Q161.97 18.92 162.52 19.55L162.52 19.55L162.52 19.55Q163.07 20.18 163.93 20.18L163.93 20.18L163.93 20.18Q164.83 20.18 165.39 19.55L165.39 19.55L165.39 19.55Q165.94 18.92 165.94 17.91L165.94 17.91L165.94 13.50ZM171.70 21L171.70 21Q171.49 21 171.49 20.79L171.49 20.79L171.49 6.51L171.49 6.51Q171.49 6.30 171.70 6.30L171.70 6.30L172.40 6.30L172.40 6.30Q172.61 6.30 172.61 6.51L172.61 6.51L172.61 20.79L172.61 20.79Q172.61 21 172.40 21L172.40 21L171.70 21ZM183.26 15.90L183.26 15.90Q183.26 16.11 183.05 16.11L183.05 16.11L178.22 16.11L178.22 16.11Q178.13 16.11 178.13 16.19L178.13 16.19L178.13 17.98L178.13 17.98Q178.13 18.94 178.69 19.56L178.69 19.56L178.69 19.56Q179.25 20.18 180.13 20.18L180.13 20.18L180.13 20.18Q180.86 20.18 181.39 19.74L181.39 19.74L181.39 19.74Q181.91 19.30 182.08 18.59L182.08 18.59L182.08 18.59Q182.14 18.40 182.31 18.40L182.31 18.40L182.98 18.44L182.98 18.44Q183.07 18.44 183.13 18.48L183.13 18.48L183.13 18.48Q183.19 18.52 183.17 18.61L183.17 18.61L183.17 18.69L183.17 18.69Q182.96 19.84 182.17 20.51L182.17 20.51L182.17 20.51Q181.37 21.17 180.13 21.17L180.13 21.17L180.13 21.17Q178.74 21.17 177.88 20.30L177.88 20.30L177.88 20.30Q177.02 19.43 177.02 18.04L177.02 18.04L177.02 13.40L177.02 13.40Q177.02 12.01 177.88 11.13L177.88 11.13L177.88 11.13Q178.74 10.25 180.13 10.25L180.13 10.25L180.13 10.25Q181.53 10.25 182.40 11.13L182.40 11.13L182.40 11.13Q183.26 12.01 183.26 13.40L183.26 13.40L183.26 15.90ZM180.13 11.23L180.13 11.23Q179.25 11.23 178.69 11.85L178.69 11.85L178.69 11.85Q178.13 12.47 178.13 13.46L178.13 13.46L178.13 15.06L178.13 15.06Q178.13 15.14 178.22 15.14L178.22 15.14L182.06 15.14L182.06 15.14Q182.14 15.14 182.14 15.06L182.14 15.06L182.14 13.46L182.14 13.46Q182.14 12.47 181.59 11.85L181.59 11.85L181.59 11.85Q181.03 11.23 180.13 11.23L180.13 11.23ZM194.31 21L194.31 21Q194.10 21 194.10 20.79L194.10 20.79L194.10 6.51L194.10 6.51Q194.10 6.30 194.31 6.30L194.31 6.30L195.03 6.30L195.03 6.30Q195.19 6.30 195.26 6.47L195.26 6.47L197.78 12.60L197.78 12.60Q197.80 12.64 197.84 12.64L197.84 12.64L197.84 12.64Q197.88 12.64 197.90 12.60L197.90 12.60L200.42 6.47L200.42 6.47Q200.49 6.30 200.66 6.30L200.66 6.30L201.37 6.30L201.37 6.30Q201.58 6.30 201.58 6.51L201.58 6.51L201.58 20.79L201.58 20.79Q201.58 21 201.37 21L201.37 21L200.68 21L200.68 21Q200.47 21 200.47 20.79L200.47 20.79L200.47 9.13L200.47 9.13Q200.47 9.07 200.42 9.07L200.42 9.07L200.42 9.07Q200.38 9.07 200.36 9.11L200.36 9.11L198.09 14.53L198.09 14.53Q198.03 14.70 197.88 14.70L197.88 14.70L197.88 14.70Q197.72 14.70 197.65 14.53L197.65 14.53L195.32 9.11L195.32 9.11Q195.30 9.07 195.26 9.07L195.26 9.07L195.26 9.07Q195.22 9.07 195.22 9.13L195.22 9.13L195.22 20.79L195.22 20.79Q195.22 21 195.01 21L195.01 21L194.31 21ZM212.63 15.90L212.63 15.90Q212.63 16.11 212.42 16.11L212.42 16.11L207.59 16.11L207.59 16.11Q207.51 16.11 207.51 16.19L207.51 16.19L207.51 17.98L207.51 17.98Q207.51 18.94 208.06 19.56L208.06 19.56L208.06 19.56Q208.62 20.18 209.50 20.18L209.50 20.18L209.50 20.18Q210.24 20.18 210.76 19.74L210.76 19.74L210.76 19.74Q211.29 19.30 211.45 18.59L211.45 18.59L211.45 18.59Q211.52 18.40 211.69 18.40L211.69 18.40L212.36 18.44L212.36 18.44Q212.44 18.44 212.50 18.48L212.50 18.48L212.50 18.48Q212.57 18.52 212.55 18.61L212.55 18.61L212.55 18.69L212.55 18.69Q212.34 19.84 211.54 20.51L211.54 20.51L211.54 20.51Q210.74 21.17 209.50 21.17L209.50 21.17L209.50 21.17Q208.12 21.17 207.25 20.30L207.25 20.30L207.25 20.30Q206.39 19.43 206.39 18.04L206.39 18.04L206.39 13.40L206.39 13.40Q206.39 12.01 207.25 11.13L207.25 11.13L207.25 11.13Q208.12 10.25 209.50 10.25L209.50 10.25L209.50 10.25Q210.91 10.25 211.77 11.13L211.77 11.13L211.77 11.13Q212.63 12.01 212.63 13.40L212.63 13.40L212.63 15.90ZM209.50 11.23L209.50 11.23Q208.62 11.23 208.06 11.85L208.06 11.85L208.06 11.85Q207.51 12.47 207.51 13.46L207.51 13.46L207.51 15.06L207.51 15.06Q207.51 15.14 207.59 15.14L207.59 15.14L211.43 15.14L211.43 15.14Q211.52 15.14 211.52 15.06L211.52 15.06L211.52 13.46L211.52 13.46Q211.52 12.47 210.96 11.85L210.96 11.85L210.96 11.85Q210.40 11.23 209.50 11.23L209.50 11.23ZM219.90 10.25L219.90 10.25Q221.33 10.25 222.14 11.20L222.14 11.20L222.14 11.20Q222.95 12.16 222.95 13.75L222.95 13.75L222.95 20.79L222.95 20.79Q222.95 21 222.74 21L222.74 21L222.04 21L222.04 21Q221.83 21 221.83 20.79L221.83 20.79L221.83 20.03L221.83 20.03Q221.83 19.97 221.80 19.96L221.80 19.96L221.80 19.96Q221.77 19.95 221.73 19.99L221.73 19.99L221.73 19.99Q220.95 21.17 219.29 21.17L219.29 21.17L219.29 21.17Q218.18 21.17 217.37 20.52L217.37 20.52L217.37 20.52Q216.56 19.87 216.56 18.23L216.56 18.23L216.56 18.23Q216.56 16.48 217.53 15.67L217.53 15.67L217.53 15.67Q218.49 14.85 220.11 14.85L220.11 14.85L221.75 14.85L221.75 14.85Q221.83 14.85 221.83 14.76L221.83 14.76L221.83 13.80L221.83 13.80Q221.83 12.62 221.32 11.93L221.32 11.93L221.32 11.93Q220.80 11.23 219.88 11.23L219.88 11.23L219.88 11.23Q219.15 11.23 218.61 11.70L218.61 11.70L218.61 11.70Q218.07 12.16 217.99 12.89L217.99 12.89L217.99 12.89Q217.99 13.10 217.78 13.10L217.78 13.10L217.02 13.06L217.02 13.06Q216.92 13.06 216.87 13.00L216.87 13.00L216.87 13.00Q216.81 12.94 216.84 12.85L216.84 12.85L216.84 12.85Q216.96 11.68 217.82 10.96L217.82 10.96L217.82 10.96Q218.68 10.25 219.90 10.25L219.90 10.25ZM219.52 20.18L219.52 20.18Q220.47 20.18 221.15 19.57L221.15 19.57L221.15 19.57Q221.83 18.96 221.83 17.85L221.83 17.85L221.83 15.86L221.83 15.86Q221.83 15.77 221.75 15.77L221.75 15.77L220.11 15.77L220.11 15.77Q219.02 15.77 218.36 16.37L218.36 16.37L218.36 16.37Q217.70 16.97 217.70 18.14L217.70 18.14L217.70 18.14Q217.70 19.17 218.20 19.68L218.20 19.68L218.20 19.68Q218.70 20.18 219.52 20.18L219.52 20.18ZM227.59 21L227.59 21Q227.38 21 227.38 20.79L227.38 20.79L227.38 6.51L227.38 6.51Q227.38 6.30 227.59 6.30L227.59 6.30L228.28 6.30L228.28 6.30Q228.50 6.30 228.50 6.51L228.50 6.51L228.50 20.79L228.50 20.79Q228.50 21 228.28 21L228.28 21L227.59 21ZM243.08 6.26L243.08 6.26Q244.55 6.26 245.45 7.36L245.45 7.36L245.45 7.36Q246.35 8.46 246.35 10.25L246.35 10.25L246.35 10.25Q246.35 12.03 245.46 13.10L245.46 13.10L245.46 13.10Q244.57 14.18 243.12 14.18L243.12 14.18L240.79 14.18L240.79 14.18Q240.71 14.18 240.71 14.26L240.71 14.26L240.71 20.79L240.71 20.79Q240.71 21 240.50 21L240.50 21L239.80 21L239.80 21Q239.59 21 239.59 20.79L239.59 20.79L239.59 6.47L239.59 6.47Q239.59 6.26 239.80 6.26L239.80 6.26L243.08 6.26ZM242.95 13.25L242.95 13.25Q243.98 13.25 244.61 12.43L244.61 12.43L244.61 12.43Q245.24 11.61 245.24 10.27L245.24 10.27L245.24 10.27Q245.24 8.90 244.61 8.08L244.61 8.08L244.61 8.08Q243.98 7.27 242.95 7.27L242.95 7.27L240.79 7.27L240.79 7.27Q240.71 7.27 240.71 7.35L240.71 7.35L240.71 13.17L240.71 13.17Q240.71 13.25 240.79 13.25L240.79 13.25L242.95 13.25ZM250.60 21L250.60 21Q250.39 21 250.39 20.79L250.39 20.79L250.39 6.51L250.39 6.51Q250.39 6.30 250.60 6.30L250.60 6.30L251.29 6.30L251.29 6.30Q251.50 6.30 251.50 6.51L251.50 6.51L251.50 20.79L251.50 20.79Q251.50 21 251.29 21L251.29 21L250.60 21ZM259.03 10.25L259.03 10.25Q260.46 10.25 261.26 11.20L261.26 11.20L261.26 11.20Q262.07 12.16 262.07 13.75L262.07 13.75L262.07 20.79L262.07 20.79Q262.07 21 261.86 21L261.86 21L261.17 21L261.17 21Q260.96 21 260.96 20.79L260.96 20.79L260.96 20.03L260.96 20.03Q260.96 19.97 260.93 19.96L260.93 19.96L260.93 19.96Q260.90 19.95 260.85 19.99L260.85 19.99L260.85 19.99Q260.08 21.17 258.42 21.17L258.42 21.17L258.42 21.17Q257.31 21.17 256.50 20.52L256.50 20.52L256.50 20.52Q255.69 19.87 255.69 18.23L255.69 18.23L255.69 18.23Q255.69 16.48 256.65 15.67L256.65 15.67L256.65 15.67Q257.62 14.85 259.24 14.85L259.24 14.85L260.88 14.85L260.88 14.85Q260.96 14.85 260.96 14.76L260.96 14.76L260.96 13.80L260.96 13.80Q260.96 12.62 260.45 11.93L260.45 11.93L260.45 11.93Q259.93 11.23 259.01 11.23L259.01 11.23L259.01 11.23Q258.27 11.23 257.74 11.70L257.74 11.70L257.74 11.70Q257.20 12.16 257.12 12.89L257.12 12.89L257.12 12.89Q257.12 13.10 256.91 13.10L256.91 13.10L256.15 13.06L256.15 13.06Q256.05 13.06 255.99 13.00L255.99 13.00L255.99 13.00Q255.94 12.94 255.96 12.85L255.96 12.85L255.96 12.85Q256.09 11.68 256.95 10.96L256.95 10.96L256.95 10.96Q257.81 10.25 259.03 10.25L259.03 10.25ZM258.65 20.18L258.65 20.18Q259.59 20.18 260.28 19.57L260.28 19.57L260.28 19.57Q260.96 18.96 260.96 17.85L260.96 17.85L260.96 15.86L260.96 15.86Q260.96 15.77 260.88 15.77L260.88 15.77L259.24 15.77L259.24 15.77Q258.15 15.77 257.48 16.37L257.48 16.37L257.48 16.37Q256.82 16.97 256.82 18.14L256.82 18.14L256.82 18.14Q256.82 19.17 257.33 19.68L257.33 19.68L257.33 19.68Q257.83 20.18 258.65 20.18L258.65 20.18ZM270.08 10.27L270.08 10.27Q271.36 10.27 272.05 11.13L272.05 11.13L272.05 11.13Q272.75 11.99 272.75 13.54L272.75 13.54L272.75 20.79L272.75 20.79Q272.75 21 272.54 21L272.54 21L271.84 21L271.84 21Q271.63 21 271.63 20.79L271.63 20.79L271.63 13.65L271.63 13.65Q271.63 12.52 271.14 11.89L271.14 11.89L271.14 11.89Q270.65 11.26 269.74 11.26L269.74 11.26L269.74 11.26Q268.82 11.26 268.28 11.93L268.28 11.93L268.28 11.93Q267.75 12.60 267.75 13.78L267.75 13.78L267.75 20.79L267.75 20.79Q267.75 21 267.54 21L267.54 21L266.85 21L266.85 21Q266.63 21 266.63 20.79L266.63 20.79L266.63 10.63L266.63 10.63Q266.63 10.42 266.85 10.42L266.85 10.42L267.54 10.42L267.54 10.42Q267.75 10.42 267.75 10.63L267.75 10.63L267.75 11.45L267.75 11.45Q267.75 11.51 267.79 11.51L267.79 11.51L267.79 11.51Q267.83 11.51 267.85 11.45L267.85 11.45L267.85 11.45Q268.61 10.27 270.08 10.27L270.08 10.27ZM280.86 10.27L280.86 10.27Q282.14 10.27 282.83 11.13L282.83 11.13L282.83 11.13Q283.52 11.99 283.52 13.54L283.52 13.54L283.52 20.79L283.52 20.79Q283.52 21 283.31 21L283.31 21L282.62 21L282.62 21Q282.41 21 282.41 20.79L282.41 20.79L282.41 13.65L282.41 13.65Q282.41 12.52 281.92 11.89L281.92 11.89L281.92 11.89Q281.42 11.26 280.52 11.26L280.52 11.26L280.52 11.26Q279.60 11.26 279.06 11.93L279.06 11.93L279.06 11.93Q278.53 12.60 278.53 13.78L278.53 13.78L278.53 20.79L278.53 20.79Q278.53 21 278.32 21L278.32 21L277.62 21L277.62 21Q277.41 21 277.41 20.79L277.41 20.79L277.41 10.63L277.41 10.63Q277.41 10.42 277.62 10.42L277.62 10.42L278.32 10.42L278.32 10.42Q278.53 10.42 278.53 10.63L278.53 10.63L278.53 11.45L278.53 11.45Q278.53 11.51 278.57 11.51L278.57 11.51L278.57 11.51Q278.61 11.51 278.63 11.45L278.63 11.45L278.63 11.45Q279.39 10.27 280.86 10.27L280.86 10.27ZM288.84 8.29L288.84 8.29Q288.49 8.29 288.23 8.03L288.23 8.03L288.23 8.03Q287.98 7.77 287.98 7.37L287.98 7.37L287.98 7.37Q287.98 6.97 288.23 6.72L288.23 6.72L288.23 6.72Q288.49 6.47 288.84 6.47L288.84 6.47L288.84 6.47Q289.22 6.47 289.45 6.72L289.45 6.72L289.45 6.72Q289.68 6.97 289.68 7.37L289.68 7.37L289.68 7.37Q289.68 7.79 289.45 8.04L289.45 8.04L289.45 8.04Q289.22 8.29 288.84 8.29L288.84 8.29ZM288.51 21L288.51 21Q288.30 21 288.30 20.79L288.30 20.79L288.30 10.63L288.30 10.63Q288.30 10.42 288.51 10.42L288.51 10.42L289.20 10.42L289.20 10.42Q289.41 10.42 289.41 10.63L289.41 10.63L289.41 20.79L289.41 20.79Q289.41 21 289.20 21L289.20 21L288.51 21ZM297.73 10.27L297.73 10.27Q299.01 10.27 299.70 11.13L299.70 11.13L299.70 11.13Q300.40 11.99 300.40 13.54L300.40 13.54L300.40 20.79L300.40 20.79Q300.40 21 300.19 21L300.19 21L299.49 21L299.49 21Q299.28 21 299.28 20.79L299.28 20.79L299.28 13.65L299.28 13.65Q299.28 12.52 298.79 11.89L298.79 11.89L298.79 11.89Q298.30 11.26 297.39 11.26L297.39 11.26L297.39 11.26Q296.47 11.26 295.93 11.93L295.93 11.93L295.93 11.93Q295.40 12.60 295.40 13.78L295.40 13.78L295.40 20.79L295.40 20.79Q295.40 21 295.19 21L295.19 21L294.50 21L294.50 21Q294.29 21 294.29 20.79L294.29 20.79L294.29 10.63L294.29 10.63Q294.29 10.42 294.50 10.42L294.50 10.42L295.19 10.42L295.19 10.42Q295.40 10.42 295.40 10.63L295.40 10.63L295.40 11.45L295.40 11.45Q295.40 11.51 295.44 11.51L295.44 11.51L295.44 11.51Q295.48 11.51 295.50 11.45L295.50 11.45L295.50 11.45Q296.26 10.27 297.73 10.27L297.73 10.27ZM309.89 10.63L309.89 10.63Q309.89 10.42 310.10 10.42L310.10 10.42L310.82 10.42L310.82 10.42Q311.03 10.42 311.03 10.63L311.03 10.63L311.03 20.87L311.03 20.87Q311.03 23.04 310.04 24.17L310.04 24.17L310.04 24.17Q309.05 25.30 306.87 25.22L306.87 25.22L306.87 25.22Q306.66 25.22 306.66 25.01L306.66 25.01L306.66 24.44L306.66 24.44Q306.66 24.23 306.93 24.23L306.93 24.23L306.93 24.23Q308.53 24.23 309.21 23.37L309.21 23.37L309.21 23.37Q309.89 22.51 309.89 20.79L309.89 20.79L309.89 19.99L309.89 19.99Q309.89 19.93 309.85 19.92L309.85 19.92L309.85 19.92Q309.81 19.91 309.79 19.97L309.79 19.97L309.79 19.97Q309.43 20.54 308.88 20.82L308.88 20.82L308.88 20.82Q308.32 21.11 307.65 21.11L307.65 21.11L307.65 21.11Q306.35 21.11 305.58 20.23L305.58 20.23L305.58 20.23Q304.81 19.36 304.81 17.95L304.81 17.95L304.81 13.40L304.81 13.40Q304.81 11.99 305.58 11.12L305.58 11.12L305.58 11.12Q306.35 10.25 307.65 10.25L307.65 10.25L307.65 10.25Q308.32 10.25 308.89 10.54L308.89 10.54L308.89 10.54Q309.45 10.84 309.79 11.38L309.79 11.38L309.79 11.38Q309.83 11.42 309.86 11.42L309.86 11.42L309.86 11.42Q309.89 11.42 309.89 11.36L309.89 11.36L309.89 10.63ZM307.94 20.12L307.94 20.12Q308.80 20.12 309.35 19.51L309.35 19.51L309.35 19.51Q309.89 18.90 309.89 17.91L309.89 17.91L309.89 13.46L309.89 13.46Q309.89 12.47 309.35 11.85L309.35 11.85L309.35 11.85Q308.80 11.23 307.94 11.23L307.94 11.23L307.94 11.23Q307.06 11.23 306.49 11.85L306.49 11.85L306.49 11.85Q305.93 12.47 305.93 13.46L305.93 13.46L305.93 17.91L305.93 17.91Q305.93 18.88 306.49 19.50L306.49 19.50L306.49 19.50Q307.06 20.12 307.94 20.12L307.94 20.12Z" transform="rotate(0 156.15499997138977 15.677643775939941)"></path><defs id="SvgjsDefs2152"></defs></svg></g></svg>